<svg width="65" height="66" viewBox="0 0 65 66" fill="none" xmlns="http://www.w3.org/2000/svg">
<g id="Group 141">
<path id="Vector" d="M24.8918 2.42039C29.6145 2.18417 33.2634 12.6251 35.2716 15.6556C37.7693 14.1498 48.3757 6.33732 50.2153 8.20776C53.2492 10.4562 49.2993 19.8173 48.5221 23.2187C53.2793 25.1677 62.5221 26.5279 62.5221 29.9237C63.4119 33.1456 53.6939 36.4059 50.2153 39.7633C51.3717 42.6271 57.7396 50.8716 55.405 53.6798C53.0127 57.3201 43.6372 49.8352 40.1326 48.889C38.8837 52.4696 38.931 55.9699 37.8865 59.6164C37.6539 60.352 37.1774 62.9252 35.2716 62.9252C31.7415 63.6343 28.9929 54.2241 26.7782 50.1626C23.5775 51.6086 17.5606 58.4347 12.7116 57.3201L12.2973 56.858C9.99755 55.1258 14.2949 46.4164 15.1972 42.8358C9.78619 40.7642 3.14365 40.945 2.43461 37.2797C1.96176 33.8546 10.9686 32.5486 15.1972 29.9237C13.5497 27.3994 5.03442 21.8009 6.93708 16.8306L7.38398 16.3434C10.2341 14.4742 18.4161 17.7088 21.5785 18.2558C21.9584 15.5334 19.6879 3.60225 24.8918 2.42039Z" stroke="#E30F2F" stroke-width="4.81974" stroke-linejoin="round"/>
</g>
</svg>
