<svg width="60" height="60" viewBox="0 0 60 60" fill="none" xmlns="http://www.w3.org/2000/svg">
<g id="boxicons:people-heart">
<path id="Vector" d="M12.4977 12.4998C11.1716 12.4998 9.8998 13.0265 8.96212 13.9642C8.02444 14.9019 7.49766 16.1737 7.49766 17.4998C7.49766 18.8258 8.02444 20.0976 8.96212 21.0353C9.8998 21.973 11.1716 22.4998 12.4977 22.4998C13.8237 22.4998 15.0955 21.973 16.0332 21.0353C16.9709 20.0976 17.4977 18.8258 17.4977 17.4998C17.4977 16.1737 16.9709 14.9019 16.0332 13.9642C15.0955 13.0265 13.8237 12.4998 12.4977 12.4998ZM48.7477 24.9998H46.9977C44.8977 24.9998 42.9727 26.0498 41.7977 27.7748L33.6477 39.9998H26.3227L18.1727 27.7748C17.0227 26.0248 15.0727 24.9998 12.9727 24.9998H11.2227C9.56505 24.9998 7.97534 25.6582 6.80324 26.8303C5.63114 28.0024 4.97266 29.5922 4.97266 31.2498V44.9998H17.4727V35.7498L22.1477 42.7748C23.0727 44.1748 24.6227 44.9998 26.2977 44.9998H33.6227C35.2977 44.9998 36.8477 44.1748 37.7727 42.7748L42.4477 35.7498V44.9998H54.9477V31.2498C54.9477 29.5922 54.2892 28.0024 53.1171 26.8303C51.945 25.6582 50.3553 24.9998 48.6977 24.9998H48.7477ZM47.4977 12.4998C46.1716 12.4998 44.8998 13.0265 43.9621 13.9642C43.0244 14.9019 42.4977 16.1737 42.4977 17.4998C42.4977 18.8258 43.0244 20.0976 43.9621 21.0353C44.8998 21.973 46.1716 22.4998 47.4977 22.4998C48.8237 22.4998 50.0955 21.973 51.0332 21.0353C51.9709 20.0976 52.4977 18.8258 52.4977 17.4998C52.4977 16.1737 51.9709 14.9019 51.0332 13.9642C50.0955 13.0265 48.8237 12.4998 47.4977 12.4998Z" fill="#E30F2F"/>
<path id="Vector_2" d="M36.2766 25.425C37.9016 23.75 37.9016 21.075 36.2766 19.4C34.6266 17.725 32.0516 17.725 30.4266 19.4L30.0016 19.825L29.5766 19.4C27.9516 17.725 25.3516 17.725 23.7266 19.4C22.1016 21.1 22.1016 23.75 23.7266 25.425L30.0016 31.875L36.2766 25.425Z" fill="#E30F2F"/>
</g>
</svg>
