<svg width="60" height="60" viewBox="0 0 60 60" fill="none" xmlns="http://www.w3.org/2000/svg">
<g id="mingcute:cellphone-2-ai-line">
<g id="Group">
<path id="Vector" fill-rule="evenodd" clip-rule="evenodd" d="M17.5 5C18.163 5 18.7989 5.26339 19.2678 5.73223C19.7366 6.20107 20 6.83696 20 7.5C20 8.16304 19.7366 8.79893 19.2678 9.26777C18.7989 9.73661 18.163 10 17.5 10H7.5C6.83696 10 6.20107 10.2634 5.73223 10.7322C5.26339 11.2011 5 11.837 5 12.5V47.5C5 48.163 5.26339 48.7989 5.73223 49.2678C6.20107 49.7366 6.83696 50 7.5 50H27.5C28.163 50 28.7989 49.7366 29.2678 49.2678C29.7366 48.7989 30 48.163 30 47.5V30C30 29.337 30.2634 28.7011 30.7322 28.2322C31.2011 27.7634 31.837 27.5 32.5 27.5C33.163 27.5 33.7989 27.7634 34.2678 28.2322C34.7366 28.7011 35 29.337 35 30V47.5C35 49.4891 34.2098 51.3968 32.8033 52.8033C31.3968 54.2098 29.4891 55 27.5 55H7.5C5.51088 55 3.60322 54.2098 2.1967 52.8033C0.790177 51.3968 0 49.4891 0 47.5V12.5C0 10.5109 0.790177 8.60322 2.1967 7.1967C3.60322 5.79018 5.51088 5 7.5 5H17.5ZM17.5 40C18.4946 40 19.4484 40.3951 20.1517 41.0984C20.8549 41.8016 21.25 42.7554 21.25 43.75C21.25 44.7446 20.8549 45.6984 20.1517 46.4016C19.4484 47.1049 18.4946 47.5 17.5 47.5C16.5054 47.5 15.5516 47.1049 14.8483 46.4016C14.1451 45.6984 13.75 44.7446 13.75 43.75C13.75 42.7554 14.1451 41.8016 14.8483 41.0984C15.5516 40.3951 16.5054 40 17.5 40ZM32.5 2.5C33.0215 2.50021 33.5299 2.66349 33.9539 2.96697C34.378 3.27046 34.6966 3.69897 34.865 4.1925L35.19 5.1375C35.56 6.22189 36.1735 7.20708 36.9835 8.01748C37.7934 8.82788 38.7783 9.44193 39.8625 9.8125L40.8075 10.135C41.3005 10.3039 41.7284 10.6227 42.0313 11.0467C42.3342 11.4708 42.4971 11.9789 42.4971 12.5C42.4971 13.0211 42.3342 13.5292 42.0313 13.9533C41.7284 14.3773 41.3005 14.6961 40.8075 14.865L39.8625 15.19C38.7781 15.56 37.7929 16.1735 36.9825 16.9835C36.1721 17.7934 35.5581 18.7783 35.1875 19.8625L34.865 20.8075C34.6961 21.3005 34.3773 21.7284 33.9533 22.0313C33.5292 22.3342 33.0211 22.4971 32.5 22.4971C31.9789 22.4971 31.4708 22.3342 31.0467 22.0313C30.6227 21.7284 30.3039 21.3005 30.135 20.8075L29.81 19.8625C29.44 18.7781 28.8265 17.7929 28.0165 16.9825C27.2066 16.1721 26.2217 15.5581 25.1375 15.1875L24.1925 14.865C23.6995 14.6961 23.2716 14.3773 22.9687 13.9533C22.6658 13.5292 22.5029 13.0211 22.5029 12.5C22.5029 11.9789 22.6658 11.4708 22.9687 11.0467C23.2716 10.6227 23.6995 10.3039 24.1925 10.135L25.1375 9.81C26.2219 9.44001 27.2071 8.82649 28.0175 8.01652C28.8279 7.20656 29.4419 6.22169 29.8125 5.1375L30.135 4.1925C30.3034 3.69897 30.622 3.27046 31.0461 2.96697C31.4701 2.66349 31.9785 2.50021 32.5 2.5ZM32.5 10.49C31.9086 11.2342 31.2342 11.9086 30.49 12.5C31.2367 13.0917 31.9067 13.7617 32.5 14.51C33.0917 13.7633 33.7617 13.0933 34.51 12.5C33.7658 11.9086 33.0914 11.2342 32.5 10.49Z" fill="#E30F2F"/>
</g>
</g>
</svg>
