<svg xmlns="http://www.w3.org/2000/svg" viewBox="0 -11 427 427"><path fill="#E30F2F" fill-rule="evenodd" d="M152.618 0.0261416C184.687 -1.54005 209.464 67.7146 223.101 87.8162C240.062 77.8281 312.085 26.008 324.577 38.4148C345.177 53.3294 318.356 115.421 313.079 137.983C345.383 150.911 408.145 159.934 408.146 182.459C414.188 203.83 348.198 225.457 324.577 247.726C332.43 266.723 375.671 321.41 359.818 340.037C343.572 364.182 279.908 314.535 256.11 308.259C247.63 332.009 247.951 355.227 240.858 379.415C239.279 384.295 236.042 401.362 223.101 401.362C199.13 406.065 180.465 343.646 165.426 316.706C143.692 326.298 102.835 371.575 69.9078 364.182L67.0943 361.118C51.4779 349.628 80.6588 291.857 86.7857 268.106C50.0428 254.365 4.93724 255.564 0.121666 231.253C-3.08922 208.534 58.0715 199.87 86.7857 182.459C75.5979 165.715 17.7765 128.579 30.6959 95.6111L33.7301 92.3787C53.0835 79.9802 108.644 101.436 130.119 105.064C132.698 87.0066 117.281 7.86576 152.618 0.0261416ZM282.416 200.969C281.186 200.918 279.948 200.838 278.718 200.925L278.443 200.98C276.142 201.451 275.191 202.612 273.947 204.489C272.432 206.771 270.96 209.126 269.061 211.135C267.72 212.554 265.915 213.729 264.341 214.894C256.337 220.822 250.323 222.565 240.555 224.641C236.81 225.437 232.042 226.016 228.221 225.725C226.354 225.583 224.509 225.161 222.647 225.042C220.88 224.928 219.105 225.056 217.336 224.924C208.275 224.242 199.201 222.416 190.799 218.997C188.814 218.189 186.927 217.153 184.975 216.272C182.927 215.348 180.586 214.662 178.696 213.468C175.747 211.603 173.309 208.892 170.247 207.256C168.147 207.899 165.434 208.402 164.365 210.515C163.663 211.903 163.814 213.681 163.88 215.185C165.318 217.232 167.489 218.504 169.424 220.053C171.395 221.571 173.512 222.772 175.65 224.044C182.955 228.389 187.206 229.822 195.417 231.998C197.845 232.641 200.216 233.56 202.671 234.093C208.905 235.445 215.681 235.861 222.044 236.245C227.259 236.56 233.894 236.805 239.061 236.215C245.174 235.516 249.027 234.509 254.858 232.582C256.913 231.903 259.073 231.249 261.004 230.274C263.284 229.125 265.472 227.546 267.636 226.193C270.708 224.27 273.935 222.061 276.54 219.553C278.649 217.52 280.65 214.99 282.485 212.699C284.044 210.749 284.879 208.364 285.787 206.084C284.85 204.189 283.978 202.465 282.416 200.969ZM211.042 162.29C210.3 162.113 209.516 162.152 208.762 162.207C207.09 162.98 205.874 163.743 204.677 165.129C204.323 170.613 206.55 172.195 208.738 176.769C209.575 178.52 210.148 180.445 210.776 182.277C212.576 187.526 213.957 192.251 211.37 197.537C206.174 193.713 204.055 190.707 200.293 185.623C199.12 184.039 197.723 182.517 196.709 180.841C195.757 179.268 195.322 177.015 194.052 175.69C192.827 174.411 190.956 173.824 189.198 174.086C187.404 174.353 185.642 175.497 184.577 176.918C183.871 177.859 183.598 178.987 183.8 180.142C184.242 182.665 186.617 185.506 187.812 187.795C189.61 190.745 191.61 193.196 193.794 195.869C195.025 197.376 196.044 199.069 197.345 200.516C199.868 203.321 205.03 207.109 208.748 208.033C211.788 208.788 214.959 208.043 217.588 206.468C220.572 204.68 223.058 201.177 223.809 197.819C224.539 194.565 224.594 189.698 224.075 186.411C223.715 184.121 222.496 182.067 221.754 179.888C220.91 177.414 220.319 174.829 219.329 172.407C218.885 171.322 218.319 170.321 217.663 169.345C216.143 167.085 213.963 162.988 211.042 162.29ZM257.162 147.516C256.519 147.367 255.86 147.383 255.204 147.426C253.305 148.282 251.609 149.419 250.879 151.43C250.642 152.083 250.442 152.869 250.497 153.562C250.66 155.595 251.518 157.768 251.925 159.782C252.926 164.705 256.313 183.079 250.882 185.613C250.264 185.901 249.456 186.092 248.804 185.803C246.289 184.689 239.219 168.764 238.275 165.644C237.488 163.039 237.357 158.192 234.791 156.658C233.601 155.948 232.166 155.958 230.863 156.313C228.851 156.861 227.266 158.061 225.989 159.644C225.868 164.038 227.409 167.85 228.518 172.039C230.239 175.11 231.121 178.168 232.512 181.341C235.136 187.332 240.012 195.228 246.787 197.199C249.432 197.969 255 196.563 257.416 195.249C260.473 193.587 263.488 186.575 264.368 183.261C265.183 180.195 265.539 176.143 265.47 172.97C265.373 168.62 263.304 153.688 261.232 150.312C260.336 148.856 258.847 147.906 257.162 147.516ZM415.646 93.2195C418.02 93.2709 420.43 93.964 422.794 94.4695C426.402 98.7672 426.588 98.5104 426.613 103.635C421.815 110.77 398.014 112.494 385.802 115.401C380.69 116.545 380.798 116.804 375.633 115.153C372.214 98.7394 401.887 95.5626 415.646 93.2195ZM392.609 23.8963C397.81 24.0743 400.283 25.9033 404.837 28.2761C415.452 44.4449 382.263 67.3814 369.791 78.5027C366.208 81.3717 366.359 81.075 361.637 81.6619L359.591 78.4715C360.697 64.3682 383.068 35.3056 392.609 23.8963Z"/></svg>
