<svg width="188" height="177" viewBox="0 0 188 177" fill="none" xmlns="http://www.w3.org/2000/svg">
<path d="M67.2547 0.0115242C81.3869 -0.678795 92.3069 29.8407 98.3163 38.699C105.791 34.2968 137.529 11.4616 143.034 16.9285C152.112 23.501 140.293 50.8638 137.967 60.8064C152.202 66.5035 179.861 70.48 179.861 80.4061C182.524 89.8237 153.444 99.3541 143.034 109.168C146.495 117.539 165.549 141.638 158.563 149.846C151.404 160.487 123.35 138.609 112.862 135.843C109.125 146.309 109.266 156.541 106.14 167.2C105.445 169.35 104.019 176.871 98.3163 176.872C87.7525 178.945 79.5277 151.437 72.9003 139.565C63.3225 143.792 45.3169 163.746 30.8065 160.488L29.5672 159.137C22.6856 154.073 35.5439 128.616 38.244 118.149C22.052 112.094 2.17531 112.622 0.0535719 101.908C-1.36081 91.8965 25.5914 88.0788 38.245 80.4061C33.3147 73.0272 7.83269 56.6621 13.5262 42.1336L14.8641 40.7098C23.3929 35.2463 47.8774 44.7007 57.3407 46.2996C58.477 38.3413 51.683 3.46641 67.2547 0.0115242ZM122.836 88.5447L122.715 88.5691C121.701 88.7765 121.281 89.2881 120.733 90.115C120.066 91.1204 119.417 92.1588 118.581 93.0438C117.99 93.6693 117.194 94.1873 116.501 94.701C112.973 97.3132 110.323 98.0808 106.018 98.9959C104.368 99.3466 102.268 99.6015 100.584 99.4734C99.7607 99.4107 98.9474 99.2254 98.1268 99.1727C97.3481 99.1226 96.5656 99.1785 95.786 99.1199C91.7934 98.8198 87.795 98.0153 84.0926 96.5086C83.2177 96.1525 82.3855 95.6957 81.5253 95.3074C80.6229 94.9002 79.5912 94.5984 78.7587 94.0721C77.459 93.2506 76.3847 92.0557 75.035 91.3348C74.1096 91.6184 72.9144 91.8402 72.4432 92.7713C72.1341 93.3826 72.2002 94.1663 72.2294 94.8289C72.8628 95.7308 73.8199 96.2917 74.6727 96.9744C75.541 97.6433 76.4737 98.1718 77.4159 98.7322C80.6349 100.647 82.5086 101.279 86.1268 102.238C87.1968 102.522 88.2419 102.926 89.3241 103.161C92.0711 103.757 95.0572 103.94 97.8612 104.109C100.159 104.248 103.083 104.357 105.36 104.096C108.054 103.789 109.752 103.344 112.321 102.495C113.227 102.196 114.179 101.908 115.03 101.478C116.035 100.972 116.999 100.276 117.953 99.6795C119.307 98.8318 120.728 97.8588 121.876 96.7537C122.805 95.8576 123.688 94.743 124.496 93.7332C125.183 92.874 125.551 91.8232 125.951 90.8182C125.538 89.9833 125.154 89.2236 124.466 88.5643C123.924 88.542 123.378 88.5064 122.836 88.5447ZM93.0018 71.5184C92.6753 71.4404 92.3301 71.4573 91.9979 71.4813C91.261 71.8219 90.7243 72.1589 90.1971 72.7693C90.0408 75.1861 91.023 75.8835 91.9872 77.8992C92.356 78.6704 92.6079 79.5188 92.8846 80.326C93.6778 82.6389 94.2865 84.7211 93.1463 87.0506C90.8569 85.3656 89.9235 84.0408 88.2655 81.8006C87.7489 81.1027 87.1323 80.432 86.6854 79.6932C86.2663 79.0001 86.0746 78.0073 85.5155 77.4236C84.9754 76.8601 84.1507 76.6014 83.3758 76.7166C82.5852 76.8343 81.8093 77.3388 81.3397 77.9647C81.0286 78.3793 80.908 78.8765 80.9969 79.3856C81.1913 80.4972 82.2388 81.7491 82.7655 82.7576C83.5575 84.0574 84.4391 85.1374 85.4012 86.3152C85.9437 86.9794 86.3921 87.7263 86.9657 88.3641C88.0774 89.6002 90.3525 91.2695 91.9911 91.6766C93.3306 92.0093 94.7277 91.6802 95.8866 90.9861C97.2015 90.1985 98.2977 88.6542 98.6288 87.1746C98.9503 85.7405 98.9737 83.5955 98.745 82.1473C98.5861 81.1385 98.0497 80.2333 97.7225 79.2732C97.351 78.1827 97.0907 77.0436 96.6542 75.9764C96.4586 75.4982 96.2088 75.0577 95.9198 74.6277C95.25 73.6317 94.2894 71.8259 93.0018 71.5184ZM113.326 65.0076C113.043 64.9419 112.752 64.9489 112.463 64.9676C111.626 65.345 110.878 65.8462 110.557 66.7322C110.452 67.0196 110.365 67.3673 110.389 67.6727C110.461 68.5681 110.839 69.5256 111.018 70.4129C111.459 72.582 112.951 80.6788 110.558 81.7957C110.286 81.9227 109.93 82.0069 109.642 81.8797C108.534 81.3872 105.418 74.3698 105.003 72.9959C104.656 71.8477 104.599 69.712 103.468 69.0359C102.943 68.7229 102.311 68.7282 101.736 68.8846C100.85 69.1258 100.152 69.6547 99.5887 70.3523C99.5355 72.2883 100.214 73.9683 100.703 75.8143C101.461 77.1677 101.851 78.5149 102.464 79.9129C103.62 82.5533 105.768 86.0326 108.754 86.9012C109.919 87.2404 112.373 86.6217 113.437 86.0428C114.785 85.3102 116.114 82.2197 116.502 80.7596C116.861 79.4082 117.017 77.6228 116.987 76.2244C116.944 74.3074 116.033 67.7278 115.12 66.24C114.725 65.5982 114.069 65.1794 113.326 65.0076ZM183.167 41.0809C184.213 41.1036 185.275 41.4089 186.316 41.6316C187.906 43.5252 187.988 43.4121 187.999 45.6697C185.885 48.8142 175.396 49.5742 170.015 50.8553C167.762 51.3593 167.81 51.4735 165.534 50.7459C164.027 43.5128 177.104 42.1134 183.167 41.0809ZM173.026 10.532C175.318 10.6105 176.408 11.4161 178.415 12.4617C183.093 19.587 168.467 29.6946 162.971 34.5955C161.392 35.8596 161.459 35.7285 159.378 35.9871L158.476 34.5818C158.964 28.367 168.821 15.5602 173.026 10.532Z" fill="#E30F2F"/>
</svg>
