<svg width="213" height="208" viewBox="0 0 213 208" fill="none" xmlns="http://www.w3.org/2000/svg">
<path d="M79.5719 0.0134821C96.2913 -0.795169 109.209 35.0033 116.319 45.3943C125.162 40.2312 162.713 13.4467 169.226 19.8592C179.966 27.569 165.984 59.6617 163.232 71.325C180.074 78.0076 212.796 82.6742 212.797 94.3172C215.944 105.364 181.542 116.542 169.226 128.053C173.32 137.871 195.863 166.138 187.601 175.768C179.132 188.249 145.94 162.587 133.531 159.342C129.11 171.618 129.275 183.621 125.577 196.124C124.754 198.646 123.066 207.468 116.319 207.468C103.821 209.898 94.0896 177.635 86.2487 163.71C74.9172 168.669 53.6165 192.072 36.4499 188.252L34.9821 186.667C26.8405 180.727 42.0534 150.864 45.2477 138.588C26.0909 131.485 2.57339 132.103 0.0631517 119.536C-1.60704 107.794 30.2773 103.316 45.2477 94.3172C39.4145 85.6619 9.2675 66.4642 16.0036 49.4227L17.5856 47.7527C27.6762 41.3442 56.6454 52.4339 67.8415 54.3094C69.1857 44.9738 61.1486 4.06564 79.5719 0.0134821Z" fill="#E30F2F"/>
</svg>
