<svg width="576" height="159" viewBox="0 0 576 159" fill="none" xmlns="http://www.w3.org/2000/svg">
<path d="M60.3877 0.0102834C73.0755 -0.607581 82.8797 26.7931 88.2754 34.7476C94.9893 30.7932 123.483 10.2941 128.427 15.2007C136.577 21.1015 125.966 45.6673 123.877 54.5962C136.658 59.7111 161.49 63.2839 161.494 72.1949C163.884 80.6502 137.774 89.2092 128.427 98.0201C131.534 105.536 148.64 127.173 142.372 134.544C135.944 144.098 110.753 124.454 101.336 121.97C97.9809 131.367 98.1065 140.555 95.3008 150.125C94.676 152.055 93.395 158.807 88.2754 158.808C78.791 160.668 71.4065 135.973 65.4561 125.313C56.8566 129.108 40.6886 147.023 27.6602 144.098L26.5469 142.885C20.3701 138.337 31.9158 115.479 34.3399 106.083C19.8018 100.646 1.95366 101.121 0.0478596 91.5015C-1.21878 82.5137 22.9792 79.0835 34.3399 72.1949C29.9117 65.5692 7.0356 50.8738 12.1475 37.8296L13.3457 36.5523C21.0047 31.6491 42.9875 40.1349 51.4844 41.5708C52.5032 34.4213 46.4073 3.1118 60.3877 0.0102834ZM216.859 40.0503C217.901 15.7308 244.026 -1.07374 267.408 0.0542287C283.991 0.552428 301.049 7.04533 307.829 23.0552C310.843 30.1736 310.885 38.4841 307.709 45.6314C301.523 54.3153 299.623 55.8982 292.58 60.646C289.102 62.9905 286.801 64.7644 283.319 66.1099C281.42 62.865 277.968 58.285 274.85 52.2583C280.469 49.6465 286.522 44.0759 288.391 39.8452C292.038 31.5842 286.636 25.584 279.074 22.4546C265.725 16.9603 244.988 21.3001 239.049 35.4683C233.813 48.0146 245.545 58.4111 254.67 65.2046C269.841 76.4931 288.875 85.4649 297.124 103.288C302.567 115.05 300.317 130.283 291.95 140.322C274.75 160.958 240.636 161.401 217.536 151.9C210.991 149.636 202.79 143.999 197.937 139.211C188.129 129.409 186.15 116.923 189.426 106.042C191.78 98.2232 196.153 89.0283 208.205 80.3511C210.267 82.9657 209.398 81.7812 214.384 87.3999C220.081 93.82 216.995 89.932 220.478 94.2847C204.649 106.71 205.181 116.685 211.817 123.842C220.485 133.182 233.277 136.639 245.813 137.421C258.89 138.237 278.038 134.272 279.221 118.537C279.803 110.784 273.402 103.585 267.575 98.9517C247.282 82.8164 215.6 70.5348 216.859 40.0503ZM404.02 11.1372C408.764 10.3254 411.563 10.8006 416.362 12.8101C438.816 22.214 415.605 96.4961 401.093 115.44C402.543 119.315 406.349 125.093 409.568 127.739C421.523 137.555 433.149 127.199 440.928 118.378C439.306 112.704 437.65 107.36 436.176 101.577C430.752 80.2848 429.379 32.3376 456.818 27.0425C461.456 26.1913 464.876 28.5104 468.133 31.8589C484.76 59.4879 474.208 100.183 460.258 119.811C466.36 131.288 475.84 138.177 487.111 127.443C482.497 109.401 485.76 89.1058 499.583 75.4175C511.034 64.4006 529.494 66.0997 540.016 77.3189C544.97 82.5981 550.224 93.0432 549.974 100.165C550.245 102.018 550.253 102.122 551.787 102.019C553.329 101.517 553.846 101.101 555.045 100.554C557.616 99.382 565.022 95.8673 566.978 94.2056C571.25 99.6649 571.49 99.5084 576.001 107.026C570.999 112.923 557.932 117.983 550.231 118.938C547.06 132.603 541.522 145.547 526.41 150.233C519.063 152.51 509.084 151.49 502.577 147.482C500.09 145.948 498.059 143.778 495.455 142.378C493.501 143.668 491.565 144.888 489.564 146.105C474.705 155.15 457.11 148.306 448.724 134.313C439.258 143.702 427.937 151.006 413.758 148.707C402.291 146.846 395.45 139.197 389.107 130.396C377.952 140.88 366.836 148.587 350.813 149.741C325.565 151.558 307.867 134.105 305.799 110.052C304.079 90.0452 314.969 67.0997 337.729 65.4917C344.492 65.0144 351.764 67.261 356.846 71.7759C361.929 76.3522 364.905 82.7418 365.096 89.4917C365.305 96.9892 362.473 104.265 357.221 109.736C349.548 117.761 338.349 121.221 327.361 121.619C338.919 139.569 362.646 132.753 375.297 120.28C377.467 118.137 379.462 116.121 381.543 113.884C380.01 107.149 377.895 102.217 376.589 94.563C372.588 71.0796 375.55 43.0665 389.277 22.689C392.61 17.7437 398.877 13.3182 404.02 11.1372ZM503.412 106.578C500.694 116.165 504.073 131.97 515.585 134.474C519.524 135.33 524.166 133.12 526.926 130.425C530.183 126.869 531.55 124.176 532.671 119.427C524.396 118.411 516.693 116.283 509.658 111.608C508.215 110.649 504.6 107.144 503.412 106.578ZM338.225 82.5279C326.649 85.4124 323.796 95.9157 323.462 106.126C327.67 105.966 329.131 105.853 333.309 105.025C350.116 101.765 353.291 81.8502 338.225 82.5279ZM463.46 61.812C463.417 58.4129 461.188 39.5141 456.432 42.0777C444.941 50.0922 447.044 89.733 451.41 104.319C451.466 104.389 451.525 104.462 451.58 104.533C452.318 104.078 452.145 104.077 452.62 103.206C459.132 87.0385 463.683 79.6382 463.46 61.812ZM518.321 85.8736C505.683 91.4477 520.708 100.06 527.5 102.098C527.917 102.222 528.336 102.342 528.757 102.456C530.076 102.849 531.168 103.262 532.548 103.241C534.09 102.152 532.852 98.5198 532.311 97.0035C529.846 90.0805 526.106 85.4153 518.321 85.8736ZM410.878 27.8452C410.398 25.7532 408.305 23.3184 403.894 27.8452C394.977 36.2849 392.533 58.5038 392.163 70.0152C391.882 78.6942 392.653 86.1026 394.141 94.6099C394.672 93.6929 395.398 92.5498 395.775 91.5865C403.033 75.4437 415.08 46.2799 410.878 27.8452ZM110.283 79.5015L110.172 79.522C109.263 79.7081 108.885 80.1695 108.394 80.9107C107.795 81.8129 107.21 82.7472 106.46 83.5415C105.93 84.1024 105.216 84.5692 104.594 85.0298C101.427 87.3747 99.0447 88.0638 95.1807 88.8853C93.6995 89.2 91.814 89.4278 90.3027 89.313C89.5641 89.2567 88.8331 89.091 88.0967 89.0435C87.3977 88.9985 86.693 89.0491 85.9932 88.9966C82.4092 88.7271 78.8196 88.0051 75.4961 86.6529C74.7108 86.3333 73.9625 85.9233 73.1904 85.5747C72.3803 85.2091 71.4536 84.9369 70.7061 84.4644C69.5395 83.727 68.5746 82.6537 67.3633 82.0064C66.533 82.2608 65.4579 82.4611 65.0342 83.2954C64.757 83.8437 64.8175 84.5495 64.8438 85.1441C65.4124 85.9534 66.2726 86.4561 67.0381 87.0689C67.8178 87.6694 68.656 88.1448 69.502 88.648C72.3915 90.3667 74.0733 90.9338 77.3213 91.7945C78.2818 92.0491 79.2209 92.4128 80.1924 92.6236C82.6584 93.1584 85.3393 93.3243 87.8565 93.4761C89.92 93.6006 92.5475 93.6979 94.5918 93.4644C97.0094 93.1881 98.5343 92.7883 100.841 92.0259C101.653 91.7574 102.509 91.4999 103.272 91.1148C104.174 90.6599 105.042 90.0328 105.897 89.4976C107.112 88.737 108.389 87.8639 109.419 86.8726C110.253 86.0683 111.046 85.0657 111.771 84.1597C112.387 83.3889 112.719 82.4449 113.078 81.5435C112.708 80.7944 112.363 80.1107 111.745 79.5191C111.259 79.4991 110.769 79.4673 110.283 79.5015ZM82.6035 64.1822C81.9428 64.4876 81.459 64.7897 80.9863 65.3365C80.846 67.5054 81.7265 68.1341 82.5918 69.9419C82.9228 70.6338 83.1521 71.3973 83.4004 72.1216C84.1123 74.1974 84.6566 76.0692 83.6348 78.1597C81.5792 76.6468 80.7407 75.4573 79.252 73.4458C78.7882 72.8194 78.2351 72.2164 77.834 71.5533C77.4581 70.9311 77.2838 70.041 76.7822 69.5171C76.2975 69.0117 75.5555 68.7784 74.8604 68.8814C74.1514 68.9872 73.4538 69.4424 73.0322 70.0034C72.7539 70.3751 72.6455 70.8219 72.7246 71.2779C72.8989 72.2752 73.8392 73.399 74.3125 74.3042C75.0236 75.4713 75.8159 76.4431 76.6797 77.5005C77.1667 78.0966 77.5711 78.7679 78.0859 79.3404C79.0845 80.4501 81.127 81.9486 82.5977 82.314C83.8 82.6121 85.0556 82.3159 86.0957 81.6929C87.2751 80.9851 88.2596 79.5984 88.5566 78.271C88.8447 76.9839 88.8671 75.0587 88.6621 73.7593C88.5192 72.8544 88.0359 72.0396 87.7422 71.1783C87.4089 70.1995 87.176 69.1742 86.7842 68.2163C86.6087 67.7878 86.3841 67.3918 86.125 67.0064C85.5237 66.112 84.6584 64.4907 83.5029 64.2144C83.2107 64.1448 82.9008 64.1607 82.6035 64.1822ZM100.979 58.3316C100.228 58.6702 99.554 59.1221 99.2647 59.9165C99.1712 60.1738 99.0944 60.4867 99.1152 60.7603C99.1799 61.5637 99.5191 62.4249 99.6807 63.2212C100.076 65.1683 101.414 72.4373 99.2676 73.4429C99.0229 73.5568 98.702 73.6331 98.4443 73.5191C97.4488 73.0763 94.6516 66.7751 94.2783 65.5415C93.9674 64.5104 93.9162 62.5918 92.9014 61.9849C92.4311 61.7042 91.8611 61.7101 91.3457 61.8501C90.5506 62.0666 89.9231 62.543 89.418 63.1685C89.3705 64.9057 89.9811 66.4163 90.4199 68.0728C91.1001 69.2872 91.4491 70.4981 91.999 71.7525C93.0373 74.1233 94.9671 77.2482 97.6475 78.0279C98.6943 78.3318 100.896 77.774 101.852 77.2544C103.061 76.5952 104.255 73.8217 104.603 72.5113C104.925 71.2981 105.066 69.6939 105.039 68.439C105 66.7143 104.183 60.8085 103.363 59.4741C103.009 58.8986 102.418 58.5239 101.752 58.3697C101.499 58.3109 101.238 58.3149 100.979 58.3316ZM164.462 36.8833C165.401 36.9038 166.354 37.1785 167.289 37.3784C168.717 39.0786 168.791 38.9792 168.801 41.0054C166.902 43.8287 157.484 44.5105 152.652 45.6607C150.63 46.1132 150.672 46.2171 148.63 45.564C147.278 39.0703 159.018 37.8104 164.462 36.8833ZM155.345 9.4556C157.403 9.5261 158.383 10.2482 160.185 11.187C164.385 17.5844 151.251 26.6614 146.315 31.062C144.899 32.196 144.957 32.078 143.09 32.3101L142.281 31.0474C142.721 25.4666 151.57 13.97 155.345 9.4556Z" fill="#F6F2ED"/>
</svg>
