<svg width="56" height="56" viewBox="0 0 56 56" fill="none" xmlns="http://www.w3.org/2000/svg">
<path d="M35 33.25H31.5V22.75H35V33.25ZM35 42V50.75C35 51.2141 34.8156 51.6592 34.4874 51.9874C34.1592 52.3156 33.7141 52.5 33.25 52.5H22.75C22.2859 52.5 21.8408 52.3156 21.5126 51.9874C21.1844 51.6592 21 51.2141 21 50.75V42H24.5V49H31.5V42H35ZM21 33.25V22.75H24.5V33.25H21ZM35 14H31.5V7H24.5V14H21V5.25C21 4.78587 21.1844 4.34075 21.5126 4.01256C21.8408 3.68437 22.2859 3.5 22.75 3.5H33.25C33.7141 3.5 34.1592 3.68437 34.4874 4.01256C34.8156 4.34075 35 4.78587 35 5.25V14Z" fill="#E30F2F"/>
<path d="M12.0747 14L8.18094 18.375L12.0692 22.75H41.9997V14H12.0747ZM11.2872 10.5H43.7497C44.2138 10.5 44.6589 10.6844 44.9871 11.0126C45.3153 11.3408 45.4997 11.7859 45.4997 12.25V24.5C45.4997 24.9641 45.3153 25.4092 44.9871 25.7374C44.6589 26.0656 44.2138 26.25 43.7497 26.25H11.2872C11.039 26.2502 10.7937 26.1977 10.5674 26.0959C10.3411 25.994 10.1391 25.8452 9.97469 25.6594L4.53875 19.5344C4.2558 19.2145 4.09961 18.8021 4.09961 18.375C4.09961 17.9479 4.2558 17.5355 4.53875 17.2156L9.98563 11.0906C10.1494 10.9054 10.3506 10.7571 10.5759 10.6553C10.8011 10.5535 11.0454 10.5005 11.2927 10.5M48.4145 37.625L44.5153 42H14.5903V33.25H44.5153L48.4145 37.625ZM45.3083 29.75H12.8513C12.3871 29.75 11.942 29.9344 11.6138 30.2626C11.2856 30.5907 11.1013 31.0359 11.1013 31.5V43.75C11.1013 44.2141 11.2856 44.6592 11.6138 44.9874C11.942 45.3156 12.3871 45.5 12.8513 45.5H45.3138C45.5619 45.5002 45.8072 45.4477 46.0335 45.3459C46.2598 45.244 46.4619 45.0952 46.6263 44.9094L52.0677 38.7844C52.3506 38.4645 52.5068 38.0521 52.5068 37.625C52.5068 37.1979 52.3506 36.7855 52.0677 36.4656L46.6208 30.3406C46.4564 30.1548 46.2543 30.006 46.0281 29.9041C45.8018 29.8023 45.5564 29.7498 45.3083 29.75Z" fill="#E30F2F"/>
</svg>
