<svg width="56" height="56" viewBox="0 0 56 56" fill="none" xmlns="http://www.w3.org/2000/svg">
<g clip-path="url(#clip0_1689_20278)">
<path d="M37.334 46.6667V44.3333C37.334 41.858 36.3507 39.484 34.6003 37.7337C32.85 35.9833 30.476 35 28.0007 35H11.6673C9.19196 35 6.81799 35.9833 5.06765 37.7337C3.31732 39.484 2.33398 41.858 2.33398 44.3333V46.6667M36.1673 25.6667C38.6427 25.6667 41.0166 24.6833 42.767 22.933C44.5173 21.1827 45.5006 18.8087 45.5006 16.3333C45.5006 13.858 44.5173 11.484 42.767 9.73367C41.0166 7.98333 38.6427 7 36.1673 7M53.6673 46.6667V44.3333C53.6673 41.858 52.684 39.484 50.9336 37.7337C49.1833 35.9833 46.8093 35 44.334 35M29.1673 16.3333C29.1673 18.8087 28.184 21.1827 26.4336 22.933C24.6833 24.6833 22.3093 25.6667 19.834 25.6667C17.3586 25.6667 14.9847 24.6833 13.2343 22.933C11.484 21.1827 10.5007 18.8087 10.5007 16.3333C10.5007 13.858 11.484 11.484 13.2343 9.73367C14.9847 7.98333 17.3586 7 19.834 7C22.3093 7 24.6833 7.98333 26.4336 9.73367C28.184 11.484 29.1673 13.858 29.1673 16.3333Z" stroke="white" stroke-width="5" stroke-linecap="square"/>
</g>
<defs>
<clipPath id="clip0_1689_20278">
<rect width="56" height="56" fill="white"/>
</clipPath>
</defs>
</svg>
