<svg width="55" height="55" viewBox="0 0 55 55" fill="none" xmlns="http://www.w3.org/2000/svg">
<path d="M20.7975 32.6564L27.5006 28.5887L34.2038 32.6564L32.4277 25.0366L38.3861 19.8804L30.5371 19.2502L27.5006 12.0314L24.4642 19.2502L16.6152 19.8804L22.5736 25.0366L20.7975 32.6564ZM4.58398 50.4168V9.16683C4.58398 7.90641 5.03315 6.8278 5.93148 5.931C6.82982 5.03419 7.90843 4.58502 9.16732 4.5835H45.834C47.0944 4.5835 48.1738 5.03266 49.0721 5.931C49.9704 6.82933 50.4188 7.90794 50.4173 9.16683V36.6668C50.4173 37.9272 49.9689 39.0066 49.0721 39.905C48.1753 40.8033 47.0959 41.2517 45.834 41.2502H13.7507L4.58398 50.4168ZM11.8027 36.6668H45.834V9.16683H9.16732V39.245L11.8027 36.6668Z" fill="#E30F2F"/>
</svg>
