<svg width="56" height="56" viewBox="0 0 56 56" fill="none" xmlns="http://www.w3.org/2000/svg">
<path d="M7 28V39.6667M7 39.6667H11.6667C14.966 39.6667 16.6157 39.6667 17.64 40.6933C18.6667 41.7153 18.6667 43.365 18.6667 46.6667V49M7 39.6667V49M9.33333 16.3333L21.7397 9.527C24.8103 7.84233 26.348 7 28 7C29.652 7 31.1897 7.84233 34.2603 9.527L46.6667 16.3333M42 14V23.3333M14 14V23.3333M49 28V39.6667M49 39.6667H44.3333C41.034 39.6667 39.3843 39.6667 38.36 40.6933C37.3333 41.7153 37.3333 43.365 37.3333 46.6667V49M49 39.6667V49M16.3333 32.6667H28M28 32.6667H39.6667M28 32.6667V49M28 49H25.6667M28 49H30.3333" stroke="#E30F2F" stroke-width="4" stroke-linecap="round" stroke-linejoin="round"/>
</svg>
